<svg width="218" height="191" viewBox="0 0 218 191" fill="none" xmlns="http://www.w3.org/2000/svg">
	<path fill-rule="evenodd" clip-rule="evenodd"
		d="M111.523 103.313C120.82 109.5 130.898 114.992 144.43 116.594L144.445 116.602C169.211 119.508 189.602 107.852 189.602 107.852L193.977 110.039L173.523 180.82C167.039 184.344 144.586 192.594 123.602 190.156C109.719 188.539 96.5312 181.492 87.0234 175.203L107.164 105.484L111.523 103.313Z"
		fill="url(#paint0_linear_204_51)" />
	<path
		d="M212.844 26.6407C212.844 26.6563 192.453 38.3047 167.687 35.3907C154.141 33.7969 144.07 28.3047 134.773 22.1094L130.398 24.2969L110.273 94.0078C119.773 100.281 132.984 107.367 146.836 108.969C167.836 111.406 190.273 103.148 196.781 99.6172L217.211 28.8516L212.836 26.6641L212.844 26.6407Z"
		fill="url(#paint1_linear_204_51)" />
	<path
		d="M67.6953 74.4844C80.7031 75.375 90.5234 80.5782 99.8672 86.461L103.852 84.4297L123.937 14.6094C114.016 7.81253 103.781 1.70315 89.7422 0.429716C87.3423 0.209056 84.9335 0.0995635 82.5234 0.10159C58.9922 0.10159 43.8516 10.625 43.8516 10.625L23.8047 79.9844L27.9141 82.1875C40.2732 76.2035 53.98 73.5483 67.6797 74.4844H67.6953Z"
		fill="url(#paint2_linear_204_51)" />
	<path
		d="M100.68 95.8125C90.7891 89.0157 80.5469 82.9219 66.5078 81.6328C64.1028 81.4091 61.6888 81.297 59.2734 81.2969C35.7578 81.2969 20.6172 91.8203 20.6172 91.8203L0.578125 161.172L4.69531 163.375C17.0559 157.396 30.7626 154.747 44.4609 155.688C57.4687 156.57 67.2734 161.781 76.625 167.641L80.5859 165.609L100.695 95.8203L100.68 95.8125Z"
		fill="url(#paint3_linear_204_51)" />
	<defs>
		<linearGradient id="paint0_linear_204_51" x1="140" y1="135" x2="83.5" y2="120.5" gradientUnits="userSpaceOnUse">
			<stop stop-color="#FFC400" />
			<stop offset="1" stop-color="#997600" />
		</linearGradient>
		<linearGradient id="paint1_linear_204_51" x1="155" y1="67.5" x2="109" y2="51" gradientUnits="userSpaceOnUse">
			<stop stop-color="#94C400" />
			<stop offset="1" stop-color="#475E00" />
		</linearGradient>
		<linearGradient id="paint2_linear_204_51" x1="54.5" y1="35.5" x2="96.5" y2="47.5" gradientUnits="userSpaceOnUse">
			<stop stop-color="#F4692C" />
			<stop offset="1" stop-color="#8E3D1A" />
		</linearGradient>
		<linearGradient id="paint3_linear_204_51" x1="26" y1="129" x2="69.5" y2="135" gradientUnits="userSpaceOnUse">
			<stop stop-color="#7291E2" />
			<stop offset="1" stop-color="#2C37B5" />
		</linearGradient>
	</defs>
</svg>