<svg width="553" height="302" viewBox="0 0 553 302" fill="none" xmlns="http://www.w3.org/2000/svg">
<path fill-rule="evenodd" clip-rule="evenodd" d="M272.523 123.313C281.82 129.5 291.898 134.992 305.43 136.594L305.445 136.602C330.211 139.508 350.602 127.852 350.602 127.852L354.977 130.039L334.523 200.82C328.039 204.344 305.586 212.594 284.602 210.156C270.719 208.539 257.531 201.492 248.023 195.203L268.164 125.484L272.523 123.313Z" fill="url(#paint0_linear_23_10)"/>
<path d="M373.844 46.6407C373.844 46.6563 353.453 58.3047 328.687 55.3907C315.141 53.7969 305.07 48.3047 295.773 42.1094L291.398 44.2969L271.273 114.008C280.773 120.281 293.984 127.367 307.836 128.969C328.836 131.406 351.273 123.148 357.781 119.617L378.211 48.8516L373.836 46.6641L373.844 46.6407Z" fill="url(#paint1_linear_23_10)"/>
<path d="M228.695 94.4844C241.703 95.375 251.523 100.578 260.867 106.461L264.852 104.43L284.937 34.6094C275.016 27.8125 264.781 21.7032 250.742 20.4297C248.342 20.2091 245.933 20.0996 243.523 20.1016C219.992 20.1016 204.852 30.625 204.852 30.625L184.805 99.9844L188.914 102.188C201.273 96.2035 214.98 93.5483 228.68 94.4844H228.695Z" fill="url(#paint2_linear_23_10)"/>
<path d="M261.68 115.813C251.789 109.016 241.547 102.922 227.508 101.633C225.103 101.409 222.689 101.297 220.273 101.297C196.758 101.297 181.617 111.82 181.617 111.82L161.578 181.172L165.695 183.375C178.056 177.396 191.763 174.747 205.461 175.688C218.469 176.57 228.273 181.781 237.625 187.641L241.586 185.609L261.695 115.82L261.68 115.813Z" fill="url(#paint3_linear_23_10)"/>
<g filter="url(#filter0_d_23_10)">
<path d="M37.38 281H27.21V216.65H51.42C56.22 216.65 60.36 217.52 63.84 219.26C67.38 220.94 70.05 223.31 71.85 226.37C73.65 229.43 74.55 232.91 74.55 236.81C74.55 240.95 73.65 244.52 71.85 247.52C70.05 250.46 67.41 252.71 63.93 254.27C60.45 255.83 56.28 256.61 51.42 256.61H37.38V281ZM37.38 248.42H51.42C55.8 248.42 59.04 247.4 61.14 245.36C63.24 243.26 64.29 240.44 64.29 236.9C64.29 233.48 63.21 230.63 61.05 228.35C58.89 226.07 55.68 224.93 51.42 224.93H37.38V248.42ZM76.5286 256.61C76.5286 251.99 77.3986 247.85 79.1386 244.19C80.9386 240.47 83.4886 237.56 86.7886 235.46C90.1486 233.36 94.0786 232.31 98.5786 232.31C103.079 232.31 106.979 233.36 110.279 235.46C113.639 237.56 116.219 240.47 118.019 244.19C119.819 247.85 120.719 251.99 120.719 256.61V257.6C120.719 262.28 119.819 266.45 118.019 270.11C116.219 273.77 113.639 276.65 110.279 278.75C106.979 280.85 103.109 281.9 98.6686 281.9C94.1086 281.9 90.1486 280.85 86.7886 278.75C83.4886 276.65 80.9386 273.77 79.1386 270.11C77.3986 266.45 76.5286 262.28 76.5286 257.6V256.61ZM86.3386 257.6C86.3386 260.66 86.7886 263.45 87.6886 265.97C88.5886 268.43 89.9686 270.41 91.8286 271.91C93.6886 273.35 95.9686 274.07 98.6686 274.07C101.369 274.07 103.619 273.35 105.419 271.91C107.279 270.41 108.659 268.43 109.559 265.97C110.459 263.45 110.909 260.66 110.909 257.6V256.61C110.909 253.61 110.459 250.88 109.559 248.42C108.659 245.9 107.279 243.89 105.419 242.39C103.559 240.89 101.279 240.14 98.5786 240.14C95.8786 240.14 93.5986 240.89 91.7386 242.39C89.9386 243.89 88.5886 245.9 87.6886 248.42C86.7886 250.88 86.3386 253.61 86.3386 256.61V257.6ZM128.696 233.21H138.056L138.326 238.7C139.586 236.66 141.146 235.1 143.006 234.02C144.866 232.88 147.026 232.31 149.486 232.31C150.026 232.31 150.686 232.37 151.466 232.49C152.246 232.61 152.816 232.73 153.176 232.85L153.086 242.03L151.826 241.85C151.046 241.73 150.086 241.67 148.946 241.67C146.306 241.67 144.116 242.24 142.376 243.38C140.636 244.46 139.346 245.99 138.506 247.97V281H128.696V233.21ZM174.958 268.22C174.958 270.38 175.378 271.85 176.218 272.63C177.118 273.35 178.408 273.71 180.088 273.71C181.288 273.71 182.548 273.56 183.868 273.26V280.91C181.648 281.57 179.398 281.9 177.118 281.9C173.458 281.9 170.548 280.85 168.388 278.75C166.228 276.65 165.148 273.29 165.148 268.67V240.5H156.958V233.21H165.148V221.42H174.958V233.21H183.688V240.5H174.958V268.22Z" fill="white"/>
<path d="M192.005 216.65H232.595V224.93H202.175V245.09H228.635V253.28H202.175V281H192.005V216.65ZM235.435 256.61C235.435 251.99 236.305 247.85 238.045 244.19C239.845 240.47 242.395 237.56 245.695 235.46C249.055 233.36 252.985 232.31 257.485 232.31C261.985 232.31 265.885 233.36 269.185 235.46C272.545 237.56 275.125 240.47 276.925 244.19C278.725 247.85 279.625 251.99 279.625 256.61V257.6C279.625 262.28 278.725 266.45 276.925 270.11C275.125 273.77 272.545 276.65 269.185 278.75C265.885 280.85 262.015 281.9 257.575 281.9C253.015 281.9 249.055 280.85 245.695 278.75C242.395 276.65 239.845 273.77 238.045 270.11C236.305 266.45 235.435 262.28 235.435 257.6V256.61ZM245.245 257.6C245.245 260.66 245.695 263.45 246.595 265.97C247.495 268.43 248.875 270.41 250.735 271.91C252.595 273.35 254.875 274.07 257.575 274.07C260.275 274.07 262.525 273.35 264.325 271.91C266.185 270.41 267.565 268.43 268.465 265.97C269.365 263.45 269.815 260.66 269.815 257.6V256.61C269.815 253.61 269.365 250.88 268.465 248.42C267.565 245.9 266.185 243.89 264.325 242.39C262.465 240.89 260.185 240.14 257.485 240.14C254.785 240.14 252.505 240.89 250.645 242.39C248.845 243.89 247.495 245.9 246.595 248.42C245.695 250.88 245.245 253.61 245.245 256.61V257.6ZM288.233 216.65H298.133V281H288.233V216.65ZM310.63 220.52C310.63 218.96 311.14 217.7 312.16 216.74C313.18 215.72 314.56 215.21 316.3 215.21C318.04 215.21 319.42 215.72 320.44 216.74C321.46 217.7 321.97 218.96 321.97 220.52C321.97 222.08 321.46 223.37 320.44 224.39C319.42 225.35 318.04 225.83 316.3 225.83C314.56 225.83 313.18 225.35 312.16 224.39C311.14 223.37 310.63 222.08 310.63 220.52ZM311.26 233.21H321.16V281H311.26V233.21ZM329.829 256.61C329.829 251.99 330.699 247.85 332.439 244.19C334.239 240.47 336.789 237.56 340.089 235.46C343.449 233.36 347.379 232.31 351.879 232.31C356.379 232.31 360.279 233.36 363.579 235.46C366.939 237.56 369.519 240.47 371.319 244.19C373.119 247.85 374.019 251.99 374.019 256.61V257.6C374.019 262.28 373.119 266.45 371.319 270.11C369.519 273.77 366.939 276.65 363.579 278.75C360.279 280.85 356.409 281.9 351.969 281.9C347.409 281.9 343.449 280.85 340.089 278.75C336.789 276.65 334.239 273.77 332.439 270.11C330.699 266.45 329.829 262.28 329.829 257.6V256.61ZM339.639 257.6C339.639 260.66 340.089 263.45 340.989 265.97C341.889 268.43 343.269 270.41 345.129 271.91C346.989 273.35 349.269 274.07 351.969 274.07C354.669 274.07 356.919 273.35 358.719 271.91C360.579 270.41 361.959 268.43 362.859 265.97C363.759 263.45 364.209 260.66 364.209 257.6V256.61C364.209 253.61 363.759 250.88 362.859 248.42C361.959 245.9 360.579 243.89 358.719 242.39C356.859 240.89 354.579 240.14 351.879 240.14C349.179 240.14 346.899 240.89 345.039 242.39C343.239 243.89 341.889 245.9 340.989 248.42C340.089 250.88 339.639 253.61 339.639 256.61V257.6Z" fill="#00B4F1"/>
</g>
<path d="M401.384 224.248C400.872 225.656 400.211 226.979 399.4 228.216C398.632 229.453 397.544 230.499 396.136 231.352C394.728 232.248 393.021 232.696 391.016 232.696C390.504 232.696 389.928 232.653 389.288 232.568C388.648 232.483 388.051 232.376 387.496 232.248V226.808C388.008 226.808 388.499 226.829 388.968 226.872C390.888 226.872 392.36 226.488 393.384 225.72C394.408 224.995 395.219 223.736 395.816 221.944L397.032 218.808L385 185.016H392.552L400.232 208.888L407.592 185.016H415.016L401.384 224.248ZM431.861 219.64C428.661 219.64 425.823 218.936 423.349 217.528C420.917 216.077 419.039 214.115 417.717 211.64C416.437 209.123 415.797 206.285 415.797 203.128C415.797 199.245 416.458 195.896 417.781 193.08C419.146 190.221 420.981 188.067 423.285 186.616C425.589 185.123 428.17 184.376 431.029 184.376C434.229 184.376 436.895 185.08 439.029 186.488C441.162 187.853 442.741 189.795 443.765 192.312C444.831 194.787 445.365 197.688 445.365 201.016V204.088H422.837C422.965 205.965 423.413 207.672 424.181 209.208C424.949 210.701 426.015 211.896 427.381 212.792C428.789 213.645 430.41 214.072 432.245 214.072C434.122 214.072 435.765 213.709 437.173 212.984C438.581 212.216 439.839 211.107 440.949 209.656L444.789 213.24C443.551 215.075 441.845 216.611 439.669 217.848C437.535 219.043 434.933 219.64 431.861 219.64ZM430.965 189.944C429.514 189.944 428.234 190.307 427.125 191.032C426.015 191.715 425.098 192.717 424.373 194.04C423.69 195.363 423.221 196.963 422.965 198.84H438.453V198.264C438.325 196.728 438.005 195.341 437.493 194.104C437.023 192.867 436.234 191.864 435.125 191.096C434.058 190.328 432.671 189.944 430.965 189.944ZM449.299 201.656C449.299 198.371 449.918 195.427 451.156 192.824C452.436 190.179 454.249 188.109 456.595 186.616C458.985 185.123 461.78 184.376 464.98 184.376C468.18 184.376 470.953 185.123 473.3 186.616C475.689 188.109 477.524 190.179 478.804 192.824C480.084 195.427 480.724 198.371 480.724 201.656V202.36C480.724 205.688 480.084 208.653 478.804 211.256C477.524 213.859 475.689 215.907 473.3 217.4C470.953 218.893 468.201 219.64 465.044 219.64C461.801 219.64 458.985 218.893 456.595 217.4C454.249 215.907 452.436 213.859 451.156 211.256C449.918 208.653 449.299 205.688 449.299 202.36V201.656ZM456.276 202.36C456.276 204.536 456.596 206.52 457.236 208.312C457.876 210.061 458.857 211.469 460.18 212.536C461.502 213.56 463.124 214.072 465.044 214.072C466.964 214.072 468.564 213.56 469.844 212.536C471.166 211.469 472.148 210.061 472.788 208.312C473.428 206.52 473.748 204.536 473.748 202.36V201.656C473.748 199.523 473.428 197.581 472.788 195.832C472.148 194.04 471.166 192.611 469.844 191.544C468.521 190.477 466.9 189.944 464.98 189.944C463.06 189.944 461.438 190.477 460.116 191.544C458.836 192.611 457.876 194.04 457.236 195.832C456.596 197.581 456.276 199.523 456.276 201.656V202.36ZM486.333 185.016H492.925L493.181 189.112C494.375 187.576 495.826 186.403 497.533 185.592C499.239 184.781 501.117 184.376 503.165 184.376C506.621 184.376 509.287 185.379 511.165 187.384C513.042 189.347 513.981 192.525 513.981 196.92V219H507.005V196.856C507.005 194.424 506.493 192.696 505.469 191.672C504.445 190.648 502.866 190.136 500.733 190.136C499.111 190.136 497.661 190.563 496.381 191.416C495.101 192.227 494.077 193.336 493.309 194.744V219H486.333V185.016ZM519.74 201.72C519.74 198.264 520.273 195.235 521.34 192.632C522.449 189.987 524.028 187.96 526.076 186.552C528.124 185.101 530.535 184.376 533.308 184.376C535.356 184.376 537.148 184.717 538.684 185.4C540.22 186.083 541.543 187.107 542.652 188.472L542.972 185.016H549.308V218.168C549.308 222.605 547.921 226.083 545.148 228.6C542.375 231.117 538.727 232.376 534.204 232.376C531.985 232.376 529.66 231.907 527.228 230.968C524.839 230.072 522.961 228.664 521.596 226.744L524.924 222.52C526.204 224.013 527.591 225.101 529.084 225.784C530.577 226.509 532.135 226.872 533.756 226.872C536.444 226.872 538.535 226.125 540.028 224.632C541.521 223.139 542.268 221.027 542.268 218.296V215.8C541.201 217.037 539.9 217.997 538.364 218.68C536.871 219.32 535.164 219.64 533.244 219.64C530.556 219.64 528.167 218.915 526.076 217.464C524.028 215.971 522.449 213.923 521.34 211.32C520.273 208.675 519.74 205.688 519.74 202.36V201.72ZM526.716 202.36C526.716 205.731 527.399 208.504 528.764 210.68C530.172 212.813 532.241 213.88 534.972 213.88C536.721 213.88 538.193 213.496 539.388 212.728C540.583 211.96 541.543 210.893 542.268 209.528V194.296C541.543 192.973 540.583 191.949 539.388 191.224C538.193 190.499 536.743 190.136 535.036 190.136C532.263 190.136 530.172 191.224 528.764 193.4C527.399 195.533 526.716 198.307 526.716 201.72V202.36Z" fill="#F4692C"/>
<path d="M7.104 199.72C6.82667 200.467 6.53867 201.107 6.24 201.64C5.94133 202.173 5.48267 202.653 4.864 203.08C4.24533 203.507 3.46667 203.72 2.528 203.72C2.336 203.72 2.10133 203.699 1.824 203.656C1.54667 203.635 1.33333 203.603 1.184 203.56L1.152 202.248C1.42933 202.312 1.77067 202.344 2.176 202.344C3.136 202.344 3.88267 202.088 4.416 201.576C4.97067 201.085 5.44 200.307 5.824 199.24L6.688 196.872L0.32 180.328H1.952L7.456 194.728L12.672 180.328H14.304L7.104 199.72ZM22.4503 197.32C21.0423 197.32 19.7729 196.957 18.6423 196.232C17.5116 195.507 16.6156 194.493 15.9543 193.192C15.3143 191.869 14.9943 190.344 14.9943 188.616C14.9943 186.931 15.3143 185.437 15.9543 184.136C16.5943 182.813 17.4583 181.8 18.5463 181.096C19.6343 180.371 20.8183 180.008 22.0983 180.008C23.4423 180.008 24.5943 180.328 25.5543 180.968C26.5356 181.587 27.2929 182.461 27.8263 183.592C28.3596 184.723 28.6263 186.013 28.6263 187.464V188.552H16.5303C16.5303 189.981 16.7756 191.261 17.2663 192.392C17.7783 193.523 18.4823 194.408 19.3783 195.048C20.2743 195.688 21.3196 196.008 22.5143 196.008C23.5169 196.008 24.4023 195.827 25.1703 195.464C25.9383 195.101 26.6316 194.515 27.2503 193.704L28.2103 194.44C27.6129 195.315 26.8343 196.019 25.8743 196.552C24.9356 197.064 23.7943 197.32 22.4503 197.32ZM22.0983 181.32C21.1169 181.32 20.2316 181.576 19.4423 182.088C18.6529 182.579 18.0129 183.272 17.5223 184.168C17.0316 185.043 16.7223 186.056 16.5943 187.208H27.0903V187.016C27.0689 185.992 26.8663 185.053 26.4823 184.2C26.0983 183.325 25.5223 182.632 24.7543 182.12C24.0076 181.587 23.1223 181.32 22.0983 181.32ZM30.7458 188.392C30.7458 186.771 31.0444 185.331 31.6418 184.072C32.2604 182.813 33.1244 181.821 34.2338 181.096C35.3644 180.371 36.6658 180.008 38.1378 180.008C39.6098 180.008 40.9004 180.371 42.0098 181.096C43.1191 181.821 43.9831 182.813 44.6018 184.072C45.2204 185.331 45.5298 186.771 45.5298 188.392V188.936C45.5298 190.557 45.2204 192.008 44.6018 193.288C43.9831 194.547 43.1191 195.539 42.0098 196.264C40.9004 196.968 39.6098 197.32 38.1378 197.32C36.6658 197.32 35.3644 196.968 34.2338 196.264C33.1244 195.539 32.2604 194.547 31.6418 193.288C31.0444 192.008 30.7458 190.557 30.7458 188.936V188.392ZM32.2498 188.936C32.2498 190.216 32.4738 191.4 32.9218 192.488C33.3911 193.555 34.0738 194.408 34.9698 195.048C35.8658 195.667 36.9218 195.976 38.1378 195.976C39.3538 195.976 40.3991 195.667 41.2738 195.048C42.1698 194.408 42.8524 193.555 43.3218 192.488C43.7911 191.4 44.0258 190.216 44.0258 188.936V188.392C44.0258 187.133 43.7911 185.971 43.3218 184.904C42.8524 183.816 42.1698 182.952 41.2738 182.312C40.3991 181.651 39.3538 181.32 38.1378 181.32C36.9218 181.32 35.8658 181.651 34.9698 182.312C34.0738 182.952 33.3911 183.816 32.9218 184.904C32.4738 185.971 32.2498 187.133 32.2498 188.392V188.936ZM48.8643 180.328H50.3363L50.3683 183.592C50.9229 182.525 51.6803 181.661 52.6403 181C53.6216 180.339 54.7309 180.008 55.9683 180.008C57.6963 180.008 59.0189 180.499 59.9363 181.48C60.8536 182.461 61.3123 184.019 61.3123 186.152V197H59.7763V186.152C59.7763 184.403 59.4243 183.165 58.7203 182.44C58.0163 181.715 56.9923 181.352 55.6483 181.352C54.2616 181.352 53.1203 181.811 52.2243 182.728C51.3496 183.645 50.7416 184.712 50.4003 185.928V197H48.8643V180.328ZM64.9408 188.488C64.9408 186.76 65.1968 185.267 65.7088 184.008C66.2208 182.728 66.9568 181.747 67.9168 181.064C68.8768 180.36 70.0181 180.008 71.3408 180.008C72.5781 180.008 73.6341 180.275 74.5088 180.808C75.4048 181.32 76.1301 182.035 76.6848 182.952L76.7168 180.328H78.1888V196.744C78.1888 198.877 77.5914 200.563 76.3968 201.8C75.2234 203.059 73.6341 203.688 71.6288 203.688C70.4981 203.688 69.4208 203.443 68.3968 202.952C67.3941 202.461 66.5621 201.757 65.9008 200.84L66.7968 199.912C67.4581 200.744 68.1728 201.352 68.9408 201.736C69.7088 202.141 70.5728 202.344 71.5328 202.344C73.1754 202.344 74.4341 201.853 75.3088 200.872C76.2048 199.891 76.6528 198.525 76.6528 196.776V194.696C76.0981 195.507 75.3621 196.147 74.4448 196.616C73.5488 197.085 72.5034 197.32 71.3088 197.32C70.0074 197.32 68.8768 196.968 67.9168 196.264C66.9568 195.539 66.2208 194.536 65.7088 193.256C65.1968 191.976 64.9408 190.504 64.9408 188.84V188.488ZM66.4768 188.84C66.4768 190.952 66.9034 192.669 67.7568 193.992C68.6101 195.293 69.8688 195.944 71.5328 195.944C72.8341 195.944 73.9114 195.645 74.7648 195.048C75.6181 194.451 76.2474 193.651 76.6528 192.648V185.032C76.2688 183.987 75.6714 183.112 74.8608 182.408C74.0714 181.704 72.9728 181.352 71.5648 181.352C69.8794 181.352 68.6101 182.013 67.7568 183.336C66.9034 184.637 66.4768 186.355 66.4768 188.488V188.84ZM89.2063 176.456L84.7583 178.952V177.416L89.9423 174.472H90.7423V197H89.2063V176.456ZM106.238 176.456L101.79 178.952V177.416L106.974 174.472H107.774V197H106.238V176.456ZM123.269 176.456L118.821 178.952V177.416L124.005 174.472H124.805V197H123.269V176.456ZM146.828 187.72C146.828 190.856 146.241 193.245 145.068 194.888C143.916 196.509 142.241 197.32 140.044 197.32C137.868 197.32 136.183 196.509 134.988 194.888C133.793 193.245 133.196 190.856 133.196 187.72V183.784C133.196 180.669 133.783 178.301 134.956 176.68C136.151 175.037 137.836 174.216 140.012 174.216C142.209 174.216 143.895 175.027 145.068 176.648C146.241 178.269 146.828 180.648 146.828 183.784V187.72ZM145.356 183.624C145.356 181.043 144.908 179.059 144.012 177.672C143.116 176.264 141.783 175.56 140.012 175.56C138.263 175.56 136.929 176.264 136.012 177.672C135.116 179.059 134.668 181.043 134.668 183.624V187.848C134.668 190.408 135.127 192.403 136.044 193.832C136.961 195.261 138.295 195.976 140.044 195.976C141.793 195.976 143.116 195.261 144.012 193.832C144.908 192.403 145.356 190.408 145.356 187.848V183.624Z" fill="white"/>
<defs>
<filter id="filter0_d_23_10" x="17.21" y="215.21" width="366.81" height="86.6901" filterUnits="userSpaceOnUse" color-interpolation-filters="sRGB">
<feFlood flood-opacity="0" result="BackgroundImageFix"/>
<feColorMatrix in="SourceAlpha" type="matrix" values="0 0 0 0 0 0 0 0 0 0 0 0 0 0 0 0 0 0 127 0" result="hardAlpha"/>
<feOffset dy="10"/>
<feGaussianBlur stdDeviation="5"/>
<feComposite in2="hardAlpha" operator="out"/>
<feColorMatrix type="matrix" values="0 0 0 0 0 0 0 0 0 1 0 0 0 0 1 0 0 0 0.25 0"/>
<feBlend mode="normal" in2="BackgroundImageFix" result="effect1_dropShadow_23_10"/>
<feBlend mode="normal" in="SourceGraphic" in2="effect1_dropShadow_23_10" result="shape"/>
</filter>
<linearGradient id="paint0_linear_23_10" x1="301" y1="155" x2="244.5" y2="140.5" gradientUnits="userSpaceOnUse">
<stop stop-color="#FFC400"/>
<stop offset="1" stop-color="#997600"/>
</linearGradient>
<linearGradient id="paint1_linear_23_10" x1="316" y1="87.5" x2="270" y2="71" gradientUnits="userSpaceOnUse">
<stop stop-color="#94C400"/>
<stop offset="1" stop-color="#475E00"/>
</linearGradient>
<linearGradient id="paint2_linear_23_10" x1="215.5" y1="55.5" x2="257.5" y2="67.5" gradientUnits="userSpaceOnUse">
<stop stop-color="#F4692C"/>
<stop offset="1" stop-color="#8E3D1A"/>
</linearGradient>
<linearGradient id="paint3_linear_23_10" x1="187" y1="149" x2="230.5" y2="155" gradientUnits="userSpaceOnUse">
<stop stop-color="#7291E2"/>
<stop offset="1" stop-color="#2C37B5"/>
</linearGradient>
</defs>
</svg>
